<?xml version="1.0" encoding="UTF-8"?>
<!DOCTYPE svg  PUBLIC '-//W3C//DTD SVG 20010904//EN'  'http://www.w3.org/TR/2001/REC-SVG-20010904/DTD/svg10.dtd'>
<svg width="2246pt" height="1316pt" version="1.0" viewBox="0 0 2246 1316" xmlns="http://www.w3.org/2000/svg">
<g transform="translate(0 1316) scale(.1 -.1)">
<path d="m14000 13118c-290-219-570-450-826-679-181-163-641-615-634-623 3-2 50 2 105 9 315 45 797 92 1205 117 270 16 1230 17 1495 0 1329-83 2461-302 3665-711 146-49 266-88 268-86 5 5-230 162-423 282-1246 777-2685 1332-4255 1642-206 40-501 91-530 91-8 0-40-19-70-42z"/>
<path d="m14858 11299c-1034-32-2008-171-3086-442-41-10-49-19-161-176-395-554-749-1177-1006-1771l-67-155 114-110c347-338 794-719 1231-1049 93-70 175-130 182-132 8-3 87 47 177 112 197 141 625 426 838 557 1279 784 2718 1374 4160 1706 1050 242 2053 351 3118 339 222-2 397-1 388 4-72 40-532 225-827 332-1577 570-3314 840-5061 785z"/>
<path d="m11075 10649c-49-16-109-34-132-39-197-46-1166-431-1466-582l-58-29 52-67c222-283 788-922 818-922 3 0 26 44 51 98 193 427 602 1174 848 1550 13 20 13 22-4 21-11 0-59-14-109-30z"/>
<path d="m10342 8218c-291-858-450-1730-468-2568l-6-245 39 40c21 23 111 122 200 222 455 508 1058 1072 1600 1498 56 44 102 83 103 86 0 3-55 45-122 95-364 264-837 654-1176 968-52 47-97 86-101 86s-35-82-69-182z"/>
<path d="m2360 5620c-927-51-1643-422-1941-1006-54-107-97-232-126-364-25-119-25-465 0-595 70-353 238-610 533-812 321-219 741-366 1574-548 888-194 1168-320 1230-553 19-73 15-230-8-289-58-153-213-267-445-327-314-82-751-72-1139 25-331 82-621 221-1041 495-70 46-131 84-135 84s-198-191-431-424c-354-354-423-427-412-439 21-25 270-191 416-276 531-311 1095-494 1747-568 192-21 753-24 928-5 346 39 640 106 880 202 537 214 886 554 1029 1002 32 101 61 246 61 304 0 19 4 34 8 34s26-37 47-82c150-309 429-620 750-835 489-328 1073-479 1793-465l102 2v1028l-192-1c-202 0-321 13-465 54-307 85-543 272-680 537-44 83-103 235-103 263 0 5 727 9 1720 9h1720v-1810h1459l4 1313 3 1312 22 90c49 201 104 325 196 442 152 194 379 284 680 270 410-19 660-248 774-707l26-105 3-1307 4-1308h1449v468l1 467 24-67c153-431 570-754 1125-872 211-44 283-51 555-51 280 1 386 11 600 62 335 79 651 244 873 456l42 41v-514h1390v918l1 917 38-110c131-380 332-690 649-996 520-504 1256-829 2102-929 143-16 490-31 578-24l82 7v1077h-129c-534 0-1043 207-1371 558-494 528-546 1351-122 1946 77 109 257 286 372 369 52 37 158 99 235 137 279 139 543 200 873 200h142v1083l-252-6c-252-6-360-14-558-43-1046-150-1922-674-2376-1420-114-188-208-403-257-591l-23-84-27 134c-144 729-623 1184-1422 1350-256 54-532 77-907 77h-228v-1100h75c181 0 503-47 652-96 270-88 450-313 482-603 4-42 7-77 6-79-1-1-94 6-206 17-746 73-1335 71-1740-5-667-125-1090-429-1254-904l-23-65-5 455c-5 467-9 519-53 738-120 597-474 1074-994 1341-170 87-294 133-487 182-266 67-412 83-763 84-193 0-344-5-410-13-922-115-1541-581-1794-1353-44-135-79-285-92-393l-7-60-24 105c-201 898-805 1506-1693 1704-256 57-673 81-947 56-900-84-1636-570-2002-1321-148-302-231-660-231-994v-90l-37 50c-111 147-201 230-372 346-323 216-752 370-1510 539-737 164-1e3 251-1143 379-73 65-105 130-120 243-38 282 130 459 514 544 129 28 506 25 683-5 147-25 364-79 474-116 41-15 76-26 78-26s3 261 3 580c0 457-3 580-12 580-7 0-89 11-182 25-336 49-663 69-916 55zm5294-1831c406-81 685-364 792-803 13-56 24-104 24-108 0-5-484-8-1076-8h-1076l7 33c52 237 163 452 315 607 248 254 623 357 1014 279zm9741-1624c94-8 187-17 209-21l39-6-6-147c-6-167-20-227-81-356-126-267-406-460-754-520-109-19-358-19-485 0-115 17-259 63-335 107-182 104-287 293-262 468 17 114 57 187 144 268 139 127 375 192 821 226 99 8 544-4 710-19z"/>
</g>
</svg>
