<?xml version="1.0" encoding="UTF-8"?>
<svg version="1.1" viewBox="0 0 700 700" xml:space="preserve" xmlns="http://www.w3.org/2000/svg" xmlns:cc="http://creativecommons.org/ns#" xmlns:dc="http://purl.org/dc/elements/1.1/" xmlns:rdf="http://www.w3.org/1999/02/22-rdf-syntax-ns#"><metadata><rdf:RDF><cc:Work rdf:about=""><dc:format>image/svg+xml</dc:format><dc:type rdf:resource="http://purl.org/dc/dcmitype/StillImage"/><dc:title/></cc:Work></rdf:RDF></metadata><defs><clipPath id="a"><path d="m0 0h960v540h-960z"/></clipPath></defs><g transform="matrix(1.3333 0 0 -1.3333 0 700)"><g transform="matrix(3.6931 0 0 3.6931 295.08 285.36)"><path d="m0 0 6.13 2.279-6.13 2.395v3.172l10.499-4.228v-2.631l-10.499-4.252z" fill="#a100ff"/></g><g transform="matrix(3.6931 0 0 3.6931 -54.178 -1613.2)"><g clip-path="url(#a)"><g transform="translate(36.545 493.87)"><path d="m0 0c-2.208 0-4.04 1.127-4.04 3.617v0.141c0 3.03 2.63 4.016 5.801 4.016h1.527v0.587c0 1.222-0.54 1.974-1.808 1.974-1.151 0-1.762-0.658-1.856-1.598h-3.288c0.234 2.725 2.395 4.064 5.308 4.064 2.959 0 5.074-1.269 5.074-4.322v-8.221h-3.359v1.41c-0.588-0.893-1.715-1.668-3.359-1.668m3.288 4.345v1.174h-1.362c-1.692 0-2.56-0.469-2.56-1.573v-0.117c0-0.846 0.517-1.434 1.668-1.434 1.174 0 2.254 0.658 2.254 1.95m11.206-4.345c-3.406 0-5.872 2.114-5.872 6.271v0.165c0 4.157 2.631 6.365 5.895 6.365 2.795 0 5.098-1.41 5.379-4.627h-3.288c-0.212 1.197-0.822 1.973-2.02 1.973-1.457 0-2.466-1.151-2.466-3.571v-0.375c0-2.49 0.892-3.618 2.49-3.618 1.174 0 2.042 0.87 2.23 2.209h3.125c-0.235-2.795-2.138-4.792-5.473-4.792m12.779 0c-3.406 0-5.872 2.114-5.872 6.271v0.165c0 4.157 2.631 6.365 5.896 6.365 2.795 0 5.097-1.41 5.379-4.627h-3.289c-0.211 1.197-0.822 1.973-2.02 1.973-1.456 0-2.466-1.151-2.466-3.571v-0.375c0-2.49 0.892-3.618 2.49-3.618 1.174 0 2.043 0.87 2.231 2.209h3.124c-0.235-2.795-2.138-4.792-5.473-4.792m12.874 0c-3.547 0-5.966 2.114-5.966 6.201v0.235c0 4.11 2.56 6.365 5.848 6.365 3.054 0 5.614-1.715 5.614-5.778v-1.48h-7.986c0.141-2.208 1.08-3.053 2.56-3.053 1.315 0 2.02 0.704 2.255 1.597h3.171c-0.376-2.326-2.278-4.087-5.496-4.087m-2.443 7.822h4.604c-0.071 1.808-0.893 2.583-2.256 2.583-1.08 0-2.066-0.587-2.348-2.583m10.054 4.72h3.429v-1.832c0.611 1.152 1.832 2.091 3.711 2.091 2.232 0 3.712-1.339 3.712-4.322v-8.221h-3.43v7.704c0 1.433-0.587 2.068-1.832 2.068-1.197 0-2.161-0.729-2.161-2.279v-7.493h-3.429zm17.266 3.712v-3.712h2.349v-2.559h-2.349v-5.826c0-0.916 0.422-1.338 1.221-1.338 0.493 0 0.869 0.07 1.198 0.211v-2.678c-0.399-0.117-1.081-0.258-1.926-0.258-2.678 0-3.946 1.221-3.946 3.711v6.178h-1.433v2.559h1.433v2.303zm15.269-15.996h-3.43v1.809c-0.587-1.175-1.738-2.067-3.57-2.067-2.208 0-3.829 1.339-3.829 4.228v8.314h3.453v-7.798c0-1.409 0.564-2.066 1.785-2.066 1.198 0 2.161 0.751 2.161 2.278v7.586h3.43zm2.491 12.284h3.429v-2.254c0.728 1.644 1.879 2.419 3.688 2.419v-3.382c-2.326 0-3.688-0.705-3.688-2.749v-6.318h-3.429zm14.165-12.542c-3.547 0-5.966 2.114-5.966 6.201v0.235c0 4.11 2.56 6.365 5.848 6.365 3.053 0 5.614-1.715 5.614-5.778v-1.48h-7.986c0.141-2.208 1.08-3.053 2.56-3.053 1.315 0 2.02 0.704 2.255 1.597h3.171c-0.376-2.326-2.278-4.087-5.496-4.087m-2.444 7.822h4.604c-0.07 1.808-0.892 2.583-2.255 2.583-1.08 0-2.066-0.587-2.349-2.583"/></g></g></g></g></svg>
